<svg width="531" height="654" fill="none" xmlns="http://www.w3.org/2000/svg"><path d="M153.909 126.233L298.669 1h78.635l-144.76 125.233h-78.635z" stroke="#F0FFF0"/><path d="M384.451 278.301l142.973-125.233L377.302 1l-144.76 125.233 151.909 152.068z" stroke="#F0FFF0"/><path d="M384.451 650.422l144.76-123.444-1.787-373.91-142.973 125.233v372.121z" stroke="#F0FFF0"/><path d="M305.818 652.211l142.973-125.233h80.422L386.24 652.211h-80.422zm0-152.068l142.973-123.444v150.279L305.818 652.211V500.143zm-223.396 0l144.761-123.444h221.608L305.818 500.143H82.422z" stroke="#F0FFF0"/><path d="M82.422 652.211l142.973-125.233 1.788-150.279-144.76 123.444v152.068z" stroke="#F0FFF0"/><path d="M82.422 652.211l142.973-125.233H146.76L2 652.211h80.422z" stroke="#F0FFF0"/><path d="M3.787 278.301L146.76 153.068v373.91L2 652.211l1.787-373.91z" stroke="#F0FFF0"/><path d="M82.422 428.581l144.761-125.233-1.788-114.499L82.422 312.293v116.288zm223.396 0l142.973-125.233V188.849L305.818 314.082v114.499z" stroke="#F0FFF0"/><path d="M82.422 428.581l144.761-125.233h221.608L305.818 428.581H82.422z" stroke="#F0FFF0"/><path d="M337.986 86.874L448.79 188.849 305.817 314.082 193.226 212.106l144.76-125.232z" stroke="#F0FFF0"/><path d="M82.422 312.293l142.973-123.444L337.987 86.874 193.226 212.106 82.422 312.293zM298.671 1L153.91 126.233 3.789 280.09l142.973-127.022L298.671 1z" stroke="#F0FFF0"/></svg>