<svg width="528" height="652" fill="none" xmlns="http://www.w3.org/2000/svg"><path d="M151.909 125.233L296.669 0h78.635l-144.76 125.233h-78.635z" fill="url(#paint0_linear)"/><path d="M382.451 277.301l142.973-125.233L375.302 0l-144.76 125.233 151.909 152.068z" fill="url(#paint1_linear)"/><path d="M382.451 649.422l144.76-123.444-1.787-373.91-142.973 125.233v372.121z" fill="url(#paint2_linear)"/><path d="M303.818 651.211l142.973-125.233h80.422L384.24 651.211h-80.422z" fill="url(#paint3_linear)"/><path d="M303.818 499.142l142.973-123.443v150.279L303.818 651.211V499.142z" fill="url(#paint4_linear)"/><path d="M80.422 499.142l144.76-123.443h221.609L303.818 499.142H80.422z" fill="url(#paint5_linear)"/><path d="M80.422 651.211l142.973-125.233 1.787-150.279-144.76 123.443v152.069z" fill="url(#paint6_linear)"/><path d="M80.422 651.211l142.973-125.233H144.76L0 651.211h80.422z" fill="url(#paint7_linear)"/><path d="M1.787 277.301L144.76 152.068v373.91L0 651.211l1.787-373.91z" fill="url(#paint8_linear)"/><path d="M80.422 427.581l144.76-125.233-1.787-114.499L80.422 311.293v116.288z" fill="url(#paint9_linear)"/><path d="M303.818 427.581l142.973-125.233V187.849L303.818 313.082v114.499z" fill="url(#paint10_linear)"/><path d="M80.422 427.581l144.76-125.233h221.609L303.818 427.581H80.422z" fill="url(#paint11_linear)"/><path d="M335.986 85.874L446.79 187.849 303.817 313.082 191.226 211.107l144.76-125.233z" fill="url(#paint12_linear)"/><path d="M80.422 311.293l142.973-123.444L335.987 85.874 191.226 211.107 80.422 311.293z" fill="url(#paint13_linear)"/><path d="M296.671 0L151.91 125.233 1.789 279.09l142.973-127.022L296.671 0z" fill="url(#paint14_linear)"/><defs><linearGradient id="paint0_linear" x1="151.909" y1="88.84" x2="375.268" y2="85.435" gradientUnits="userSpaceOnUse"><stop stop-color="#8B1700"/><stop offset=".526" stop-color="#561731"/><stop offset="1" stop-color="#1E176A"/></linearGradient><linearGradient id="paint1_linear" x1="230.542" y1="196.718" x2="525.421" y2="194.038" gradientUnits="userSpaceOnUse"><stop stop-color="#8B1700"/><stop offset=".526" stop-color="#561731"/><stop offset="1" stop-color="#1E176A"/></linearGradient><linearGradient id="paint2_linear" x1="382.451" y1="504.892" x2="527.221" y2="504.532" gradientUnits="userSpaceOnUse"><stop stop-color="#8B1700"/><stop offset=".526" stop-color="#561731"/><stop offset="1" stop-color="#1E176A"/></linearGradient><linearGradient id="paint3_linear" x1="303.818" y1="614.818" x2="527.177" y2="611.413" gradientUnits="userSpaceOnUse"><stop stop-color="#8B1700"/><stop offset=".526" stop-color="#561731"/><stop offset="1" stop-color="#1E176A"/></linearGradient><linearGradient id="paint4_linear" x1="303.818" y1="571.148" x2="446.798" y2="570.513" gradientUnits="userSpaceOnUse"><stop stop-color="#8B1700"/><stop offset=".526" stop-color="#561731"/><stop offset="1" stop-color="#1E176A"/></linearGradient><linearGradient id="paint5_linear" x1="80.422" y1="463.27" x2="446.582" y2="453.982" gradientUnits="userSpaceOnUse"><stop stop-color="#8B1700"/><stop offset=".526" stop-color="#561731"/><stop offset="1" stop-color="#1E176A"/></linearGradient><linearGradient id="paint6_linear" x1="80.422" y1="571.148" x2="225.19" y2="570.497" gradientUnits="userSpaceOnUse"><stop stop-color="#8B1700"/><stop offset=".526" stop-color="#561731"/><stop offset="1" stop-color="#1E176A"/></linearGradient><linearGradient id="paint7_linear" x1="0" y1="614.818" x2="223.36" y2="611.413" gradientUnits="userSpaceOnUse"><stop stop-color="#8B1700"/><stop offset=".526" stop-color="#561731"/><stop offset="1" stop-color="#1E176A"/></linearGradient><linearGradient id="paint8_linear" x1="0" y1="506.161" x2="144.77" y2="505.802" gradientUnits="userSpaceOnUse"><stop stop-color="#8B1700"/><stop offset=".526" stop-color="#561731"/><stop offset="1" stop-color="#1E176A"/></linearGradient><linearGradient id="paint9_linear" x1="80.422" y1="357.915" x2="225.189" y2="357.168" gradientUnits="userSpaceOnUse"><stop stop-color="#8B1700"/><stop offset=".526" stop-color="#561731"/><stop offset="1" stop-color="#1E176A"/></linearGradient><linearGradient id="paint10_linear" x1="303.818" y1="357.915" x2="446.797" y2="357.186" gradientUnits="userSpaceOnUse"><stop stop-color="#8B1700"/><stop offset=".526" stop-color="#561731"/><stop offset="1" stop-color="#1E176A"/></linearGradient><linearGradient id="paint11_linear" x1="80.422" y1="391.188" x2="446.588" y2="382.032" gradientUnits="userSpaceOnUse"><stop stop-color="#8B1700"/><stop offset=".526" stop-color="#561731"/><stop offset="1" stop-color="#1E176A"/></linearGradient><linearGradient id="paint12_linear" x1="191.226" y1="247.056" x2="446.785" y2="244.599" gradientUnits="userSpaceOnUse"><stop stop-color="#8B1700"/><stop offset=".526" stop-color="#561731"/><stop offset="1" stop-color="#1E176A"/></linearGradient><linearGradient id="paint13_linear" x1="80.422" y1="245.787" x2="335.981" y2="243.31" gradientUnits="userSpaceOnUse"><stop stop-color="#8B1700"/><stop offset=".526" stop-color="#561731"/><stop offset="1" stop-color="#1E176A"/></linearGradient><linearGradient id="paint14_linear" x1="1.789" y1="197.987" x2="296.668" y2="195.324" gradientUnits="userSpaceOnUse"><stop stop-color="#8B1700"/><stop offset=".526" stop-color="#561731"/><stop offset="1" stop-color="#1E176A"/></linearGradient></defs></svg>