<svg width="150" height="75" fill="none" xmlns="http://www.w3.org/2000/svg"><path d="M28.991 48.356c-5.935-2.737-8.788-5.702-9.473-9.58h11.185l1.713 2.852c.799 1.368 1.255 2.623 1.255 4.105 0 1.483-.685 2.623-2.397 2.623V71.85h44.971V47.216c-1.37-.456-2.625-1.597-4.908-5.588L64.489 29.88c-.685-1.14-.913-2.395-.913-5.018V0H7.305v24.52h9.588c1.94 0 3.31 1.369 3.31 3.08 0 1.596-.913 3.079-1.94 4.448C11.527 41.058 4.565 45.848 0 47.216V71.85h28.991V48.356zm-9.587-11.29c0-3.08.57-5.018 1.483-6.615l2.283-4.22 6.849 11.405H19.404v-.57zm95.691-8.668c2.397 0 4.908 1.71 5.365 6.273h29.334V1.14h-27.85v31.363h-1.142C118.519 5.588 113.954 0 101.284 0 84.62 0 78 13.458 78 37.522c0 29.652 17.577 36.61 36.753 36.61 28.192 0 36.296-15.397 35.041-38.32h-1.142c0 6.044-1.027 7.869-21.23 7.869-14.724 0-16.892-3.422-16.892-9.58 0-3.65 1.369-5.703 4.565-5.703z" fill="#F0FFF0"/></svg>