<svg width="1377" height="143" fill="none" xmlns="http://www.w3.org/2000/svg"><path d="M56.306 95.353C44.88 90.08 39.388 84.368 38.07 76.897H59.6l3.296 5.493c1.538 2.637 2.417 5.053 2.417 7.91 0 2.856-1.319 5.053-4.614 5.053v45.26h86.564V93.156c-2.636-.879-5.053-3.076-9.447-10.766l-13.182-22.63c-1.319-2.197-1.758-4.613-1.758-9.667V2.197H14.561v47.237h18.456c3.735 0 6.371 2.637 6.371 5.932 0 3.076-1.758 5.932-3.735 8.569C22.69 81.292 9.288 90.519.5 93.155v47.458h55.806v-45.26zM37.85 73.602c0-5.932 1.099-9.667 2.856-12.743l4.395-8.13L58.283 74.7H37.85v-1.098zm173.674 19.554c-26.365-12.963-41.745-25.047-43.283-40.866l39.987 25.926c6.152 3.955 7.69 7.91 7.69 14.94v47.457h75.14v-67.45c0-16.918 3.735-23.07 11.424-23.949V2.197h-56.904v47.237c17.796 4.614 42.623 23.07 43.282 38.669v1.538h-.219l-37.57-25.267c-8.129-5.492-9.887-6.371-9.887-15.16V2.197h-89.421v47.237c14.281 0 14.061.66 14.061 12.743v4.394c0 16.039-3.954 25.267-14.061 26.585v47.457h59.761V93.156zm173.36-43.722c12.084 0 15.6 3.955 15.6 21.97 0 19.115-8.349 21.752-16.698 21.752h-3.296V49.434h4.394zm4.834 91.179c54.048 0 73.822-22.411 73.822-69.208 0-44.82-21.092-69.208-78.436-69.208h-78.216v47.237c14.281 0 14.062.66 14.062 12.963v17.796c0 12.304.219 12.963-14.062 12.963v47.457h82.83zm192.853 0V93.156c-14.061 0-14.061-.66-14.061-13.402 14.501-14.062 35.592-27.024 40.646-30.32V2.197h-49.434v47.237c8.129 1.318 16.038 6.591 16.038 14.061 0 4.395-2.636 9.667-9.227 15.16l-18.236-16.258c-2.197-1.977-3.296-4.175-3.296-6.152 0-3.735 3.735-6.81 10.326-6.81V2.196h-90.739v47.237c4.175.44 8.349 2.637 14.94 9.887l18.456 20.213c0 12.963.22 13.622-14.061 13.622v47.457h98.648zm143.495-85.906c4.613 0 9.447 3.296 10.326 12.084h56.465V2.197h-53.609v60.42h-2.197C732.657 10.766 723.869 0 699.481 0c-32.077 0-44.82 25.925-44.82 72.284 0 57.124 33.835 70.526 70.746 70.526 54.267 0 69.866-29.661 67.45-73.822h-2.197c0 11.644-1.978 15.16-40.866 15.16-28.342 0-32.517-6.591-32.517-18.456 0-7.03 2.637-10.985 8.789-10.985zm125.176 40.646c-11.425-5.273-16.917-10.985-18.236-18.456h21.532l3.295 5.493c1.538 2.637 2.417 5.053 2.417 7.91 0 2.856-1.318 5.053-4.614 5.053v45.26h86.565V93.156c-2.637-.879-5.053-3.076-9.448-10.766l-13.182-22.63c-1.318-2.197-1.758-4.613-1.758-9.667V2.197H809.498v47.237h18.455c3.735 0 6.372 2.637 6.372 5.932 0 3.076-1.758 5.932-3.735 8.569-12.963 17.357-26.365 26.584-35.154 29.22v47.458h55.806v-45.26zm-18.455-21.751c0-5.932 1.098-9.667 2.856-12.743l4.394-8.13L853.219 74.7h-20.432v-1.098z" fill="#F0FFF0"/><path d="M1063.4 2.197H935.972V74.7h2.197v-9.227c0-10.326 5.932-15.38 26.145-16.039v30.76c0 12.303.22 12.962-17.137 12.962v47.457h105.243V93.156c-17.8 0-17.58-.66-17.58-12.963V49.434c20.21.66 26.36 5.713 26.36 16.039V74.7h2.2V2.197zm74.62 52.51c4.61 0 9.44 3.296 10.32 12.084h56.47V2.197h-53.61v60.42h-2.2C1144.61 10.766 1135.82 0 1111.43 0c-32.08 0-44.82 25.925-44.82 72.284 0 57.124 33.84 70.526 70.75 70.526 54.27 0 69.86-29.661 67.45-73.822h-2.2c0 11.644-1.98 15.16-40.87 15.16-28.34 0-32.51-6.591-32.51-18.456 0-7.03 2.63-10.985 8.79-10.985zm164.88 25.486c0 12.304.22 12.963-7.47 12.963v47.457h81.07V93.156c-14.28 0-14.06-.66-14.06-12.963V62.397c0-12.304-.22-12.963 14.06-12.963V2.197h-81.07v47.237c7.69 0 7.47.66 7.47 12.963v6.81h-19.34v-6.81c0-12.304-.22-12.963 7.47-12.963V2.197h-81.07v47.237c14.28 0 14.06.66 14.06 12.963v17.796c0 12.304.22 12.963-14.06 12.963v47.457h81.07V93.156c-7.69 0-7.47-.66-7.47-12.963v-8.788h19.34v8.788z" fill="#F0FFF0"/></svg>