<svg width="376" height="155" fill="none" xmlns="http://www.w3.org/2000/svg"><path d="M37.095 108.398c2.397 0 4.908 1.711 5.365 6.273h29.334v-33.53h-27.85v31.363h-1.142C40.52 85.588 35.954 80 23.284 80 6.62 80 0 93.458 0 117.522c0 29.652 17.577 36.609 36.753 36.609 28.192 0 36.296-15.396 35.04-38.32h-1.14c0 6.045-1.028 7.869-21.23 7.869-14.725 0-16.893-3.421-16.893-9.58 0-3.649 1.37-5.702 4.565-5.702zm65.03 21.099c-5.935-2.737-8.788-5.702-9.473-9.58h11.185l1.712 2.851c.799 1.369 1.256 2.623 1.256 4.106 0 1.482-.685 2.623-2.397 2.623v23.494h44.971v-24.635c-1.37-.456-2.625-1.596-4.908-5.588l-6.848-11.747c-.685-1.14-.914-2.395-.914-5.018V81.141h-56.27v24.52h9.587c1.94 0 3.31 1.368 3.31 3.079 0 1.597-.913 3.079-1.94 4.448-6.734 9.01-13.697 13.8-18.262 15.168v24.635h28.991v-23.494zm-9.588-11.291c0-3.079.571-5.018 1.484-6.615l2.283-4.219 6.848 11.404H92.537v-.57z" fill="#F0FFF0"/><path d="M212.344 81.14h-66.201v37.636h1.141v-4.79c0-5.36 3.082-7.983 13.583-8.325v15.967c0 6.386.114 6.728-8.903 6.728v24.635h54.673v-24.635c-9.246 0-9.132-.342-9.132-6.728v-15.967c10.501.342 13.697 2.965 13.697 8.325v4.79h1.142V81.141zm38.762 27.258c2.397 0 4.908 1.711 5.365 6.273h29.334v-33.53h-27.85v31.363h-1.142C254.531 85.588 249.965 80 237.295 80c-16.664 0-23.284 13.458-23.284 37.522 0 29.652 17.578 36.609 36.753 36.609 28.192 0 36.296-15.396 35.041-38.32h-1.142c0 6.045-1.027 7.869-21.23 7.869-14.724 0-16.892-3.421-16.892-9.58 0-3.649 1.369-5.702 4.565-5.702zm85.657 13.23c0 6.386.115 6.728-3.88 6.728v24.635H375v-24.635c-7.419 0-7.305-.342-7.305-6.728v-9.238c0-6.387-.114-6.729 7.305-6.729v-24.52h-42.117v24.52c3.995 0 3.88.342 3.88 6.729v3.535h-10.044v-3.535c0-6.387-.114-6.729 3.881-6.729v-24.52h-42.118v24.52c7.42 0 7.305.342 7.305 6.729v9.238c0 6.386.115 6.728-7.305 6.728v24.635H330.6v-24.635c-3.995 0-3.881-.342-3.881-6.728v-4.562h10.044v4.562zM29.991 48.356c-5.935-2.737-8.788-5.702-9.473-9.58h11.185l1.713 2.852c.799 1.368 1.255 2.623 1.255 4.105 0 1.483-.685 2.623-2.397 2.623V71.85h44.971V47.216c-1.37-.456-2.625-1.597-4.908-5.588L65.489 29.88c-.685-1.14-.913-2.395-.913-5.018V0H8.305v24.52h9.588c1.94 0 3.31 1.369 3.31 3.08 0 1.596-.913 3.079-1.94 4.448C12.527 41.058 5.565 45.848 1 47.216V71.85h28.991V48.356zm-9.587-11.29c0-3.08.57-5.018 1.483-6.615l2.283-4.22 6.849 11.405H20.404v-.57zm108.887 10.15c-13.697-6.729-21.687-13.002-22.486-21.213l20.774 13.458c3.196 2.053 3.995 4.105 3.995 7.755V71.85h39.035V36.838c0-8.782 1.941-11.976 5.936-12.432V0h-29.563v24.52c9.246 2.395 22.143 11.975 22.486 20.073v.798h-.114l-19.518-13.115c-4.223-2.852-5.136-3.308-5.136-7.87V0H98.245v24.52c7.419 0 7.305.343 7.305 6.615v2.281c0 8.326-2.055 13.116-7.305 13.8V71.85h31.046V47.216zM238.064 24.52c6.278 0 8.104 2.053 8.104 11.405 0 9.922-4.337 11.291-8.675 11.291h-1.712V24.52h2.283zm2.511 47.33c28.078 0 38.351-11.632 38.351-35.925C278.926 12.66 267.968 0 238.178 0h-40.633v24.52c7.419 0 7.304.343 7.304 6.73v9.237c0 6.387.115 6.729-7.304 6.729V71.85h43.03zm120.644 0V47.216c-7.305 0-7.305-.342-7.305-6.957 7.533-7.3 18.49-14.028 21.115-15.739V0h-25.681v24.52c4.223.685 8.332 3.422 8.332 7.3 0 2.28-1.369 5.018-4.794 7.869l-9.473-8.44c-1.142-1.026-1.712-2.167-1.712-3.193 0-1.939 1.94-3.536 5.364-3.536V0h-47.139v24.52c2.168.229 4.337 1.369 7.761 5.133l9.588 10.492c0 6.729.114 7.071-7.305 7.071V71.85h51.249z" fill="#F0FFF0"/></svg>