<svg width="1376" height="200" fill="none" xmlns="http://www.w3.org/2000/svg"><path d="M63.83 116.291c-13.067-6.015-19.35-12.532-20.858-21.053H67.6l3.77 6.266c1.758 3.007 2.764 5.764 2.764 9.022s-1.508 5.765-5.278 5.765v51.629h99.013v-54.136c-3.016-1.002-5.78-3.508-10.806-12.28l-15.078-25.815c-1.508-2.506-2.011-5.263-2.011-11.027V10.025H16.084V63.91h21.109c4.272 0 7.287 3.007 7.287 6.767 0 3.508-2.01 6.767-4.272 9.774-14.827 19.8-30.156 30.326-40.208 33.333v54.136h63.83v-51.629zM42.721 91.479c0-6.767 1.257-11.028 3.267-14.537l5.026-9.273 15.078 25.063h-23.37v-1.253zm207.945 24.812c-5.026 0-6.031-4.512-6.031-15.038V91.228c0-7.77 3.016-10.276 7.791-10.276 5.779 0 7.79 2.256 7.79 12.03v8.271c0 10.526-1.005 15.038-6.031 15.038v51.629h75.138v-51.629c-5.026 0-6.031-4.512-6.031-15.038V75.94c0-33.083-9.8-47.118-39.705-47.118-29.151 0-41.465 7.519-41.214 57.895h-2.261V31.328h-67.097v51.379c7.287 0 8.544 3.509 8.544 15.037v3.509c0 10.526-1.257 15.038-8.544 15.038v51.629h77.651v-51.629zm151.961 2.005c-4.775 0-7.539-2.757-7.539-17.293 0-26.066 2.01-27.068 9.298-27.068 2.261 0 4.523.501 6.282 1.253v28.571c0 10.025-2.513 14.537-8.041 14.537zM473.745 0h-76.396v34.587c11.309 0 13.319 4.51 13.319 15.037v20.3h-1.759c-3.267-33.834-16.837-41.102-36.941-41.102-27.643 0-39.957 24.06-39.957 75.94 0 45.865 13.822 65.664 41.716 65.664 27.643 0 36.69-16.291 38.952-56.642h2.513v54.136h67.097v-51.629c-7.288 0-8.544-3.509-8.544-14.537V0zm64.906 200c32.669 0 42.721-8.521 54.03-64.411 4.523-23.058 17.088-41.103 27.643-52.882V31.328h-31.916v103.509h-2.764l-15.329-35.338c-1.257-3.008-1.759-5.514-1.759-7.77 0-5.764 3.769-9.022 14.575-9.273V31.328h-95.745v51.128c3.769 0 5.277 3.008 7.036 9.023l14.073 46.115h62.071c16.083 0 17.842 1.002 17.842 3.759 0 1.755-1.507 2.757-4.523 2.757h-96.499V200h51.265zM754.069 69.925c5.277 0 10.805 3.76 11.811 13.784h64.584V10.025h-61.317v68.922h-2.513C761.608 19.8 751.556 7.52 723.661 7.52c-36.69 0-51.265 29.574-51.265 82.456 0 65.163 38.7 80.451 80.919 80.451 62.071 0 79.913-33.835 77.149-84.21h-2.513c0 13.283-2.262 17.293-46.742 17.293-32.418 0-37.193-7.519-37.193-21.053 0-8.02 3.016-12.531 10.053-12.531z" fill="#F0FFF0"/><path d="M906.31 79.95c3.518 0 4.774 2.255 4.774 6.266v3.508c0 7.269-2.513 8.271-32.92 8.271-32.167 0-46.993 11.779-46.993 37.343 0 22.557 10.052 35.088 39.203 35.088 31.161 0 42.218-15.789 42.721-59.148h2.261c0 39.85 6.032 59.148 36.69 59.148 29.905 0 34.931-14.035 34.931-48.621 0-7.018-.251-15.289-.754-24.562h-2.764c.502 18.797-1.005 19.298-3.77 19.298-2.261 0-3.015-.752-3.015-6.516V78.947c0-36.09-10.555-50.125-38.198-50.125s-40.962 10.276-41.213 60.15h-2.011V31.328h-59.307v60.15h63.328c.503-7.267 2.513-11.528 7.037-11.528zm-4.524 36.341c-4.021 0-6.282-2.005-6.282-5.263 0-8.02 10.303-9.524 15.58-15.038v10.526c0 8.772-4.021 9.775-9.298 9.775zM1057.41 1.504h-1.76c-6.79 21.303-43.48 35.088-68.608 35.088v46.115h7.287v43.358c0 37.093 16.591 44.361 39.961 44.361 26.13 0 37.94-14.286 37.94-60.902 0-8.772 0-14.286-.25-19.8h-2.76c.5 16.792-1.76 20.301-6.29 20.301-4.02 0-5.52-2.256-5.52-7.769v-19.55h15.33V31.329h-15.33V1.504zm94.82 86.216c3.77 0 6.53 2.004 8.29 7.518h52.52v-63.91h-50.26v59.65h-2.51c-3.77-51.128-16.33-62.156-41.21-62.156-31.67 0-41.22 34.336-41.22 69.674 0 59.148 32.92 71.93 75.14 71.93 46.74 0 60.31-28.321 60.31-71.178h-2.51c-.5 8.772-14.07 10.526-27.39 10.526-26.64 0-39.45-3.007-39.45-13.784 0-5.263 2.76-8.27 8.29-8.27zm145.11 28.571c-5.02 0-6.03-4.512-6.03-15.038V91.228c0-7.77 3.02-10.276 7.79-10.276 5.78 0 7.79 2.256 7.79 12.03v8.271c0 10.526-1 15.038-6.03 15.038v51.629H1376v-51.629c-5.03 0-6.03-4.512-6.03-15.038V75.94c0-33.083-9.8-47.118-39.71-47.118-29.15 0-41.46 7.519-41.21 57.895h-2.26V0h-67.1v51.378c7.29 0 8.55 3.51 8.55 15.038v34.837c0 10.526-1.26 15.038-8.55 15.038v51.629h77.65v-51.629z" fill="#F0FFF0"/></svg>