<svg width="527" height="653" fill="none" xmlns="http://www.w3.org/2000/svg"><path d="M81.287 579.065L224.02 454.174V74.15L79.503 197.256l1.784 381.809zm130.243-51.74L65.23 650.432l251.565 1.784 140.948-124.891H211.53zM1 199.041L143.732 72.366 218.667 1 75.934 125.891 1 199.041z" stroke="#F0FFF0"/><path d="M309.658 125.891L454.175 1H215.098L72.366 127.675l237.292-1.784zm73.152 73.15l142.732-124.89L454.176 1 309.659 125.891l73.151 73.15z" stroke="#F0FFF0"/><path d="M382.809 277.543l142.732-124.89V74.15L382.809 199.04v78.502z" stroke="#F0FFF0"/><path d="M304.306 277.544l142.732-124.891h78.503L382.809 277.544h-78.503z" stroke="#F0FFF0"/><path d="M447.038 72.366L304.306 197.257v80.287l142.732-124.891V72.366z" stroke="#F0FFF0"/><path d="M224.02 74.15l223.019-1.784-142.733 124.891H79.503L224.02 74.15zm80.286 504.916l142.732-124.891H224.019L81.287 579.066h223.019z" stroke="#F0FFF0"/><path d="M302.522 505.915l142.732-124.891 1.785 73.151-142.733 124.89-1.784-73.15z" stroke="#F0FFF0"/><path d="M521.973 382.809l-76.719-1.785-142.732 124.891 80.287 1.784 139.164-124.89zM382.809 586.203l142.732-124.891-3.568-78.503L382.809 507.7v78.503z" stroke="#F0FFF0"/><path d="M525.54 461.312l-142.732 124.89-66.014 66.014 140.948-124.891 67.798-66.013zM1 582.634l142.732-123.107 67.798 67.798-146.3 123.107L1 582.634zm0-383.593L143.732 72.366v387.161L1 582.634V199.041zM215.098 4.568l-74.934 64.23-67.798 58.877L1 199.041 215.098 4.568z" stroke="#F0FFF0"/></svg>