<svg xmlns="http://www.w3.org/2000/svg" width="527" height="653" fill="none" viewBox="0 0 527 653"><path stroke="#f0fff0" d="M81.287 579.065 224.02 454.174V74.15L79.503 197.256zM211.53 527.325 65.23 650.432l251.565 1.784 140.948-124.891zM1 199.041 143.732 72.366 218.667 1 75.934 125.891z"/><path stroke="#f0fff0" d="M309.658 125.891 454.175 1H215.098L72.366 127.675zM382.81 199.041l142.732-124.89L454.176 1 309.659 125.891z"/><path stroke="#f0fff0" d="m382.809 277.543 142.732-124.89V74.15L382.809 199.04z"/><path stroke="#f0fff0" d="m304.306 277.544 142.732-124.891h78.503L382.809 277.544z"/><path stroke="#f0fff0" d="M447.038 72.366 304.306 197.257v80.287l142.732-124.891z"/><path stroke="#f0fff0" d="m224.02 74.15 223.019-1.784-142.733 124.891H79.503zM304.306 579.066l142.732-124.891H224.019L81.287 579.066z"/><path stroke="#f0fff0" d="m302.522 505.915 142.732-124.891 1.785 73.151-142.733 124.89z"/><path stroke="#f0fff0" d="m521.973 382.809-76.719-1.785-142.732 124.891 80.287 1.784zM382.809 586.203l142.732-124.891-3.568-78.503L382.809 507.7z"/><path stroke="#f0fff0" d="m525.54 461.312-142.732 124.89-66.014 66.014 140.948-124.891zM1 582.634l142.732-123.107 67.798 67.798-146.3 123.107zM1 199.041 143.732 72.366v387.161L1 582.634zM215.098 4.568l-74.934 64.23-67.798 58.877L1 199.041z"/></svg>