<svg width="525" height="652" fill="none" xmlns="http://www.w3.org/2000/svg"><path d="M80.287 578.065L223.02 453.174V73.15L78.503 196.256l1.784 381.809z" fill="url(#paint0_linear)"/><path d="M210.53 526.325L64.23 649.432l251.565 1.784 140.948-124.891H210.53z" fill="url(#paint1_linear)"/><path d="M0 198.041L142.732 71.366 217.667 0 74.934 124.891 0 198.041z" fill="url(#paint2_linear)"/><path d="M308.658 124.891L453.175 0H214.098L71.366 126.675l237.292-1.784z" fill="url(#paint3_linear)"/><path d="M381.81 198.041l142.732-124.89L453.176 0 308.659 124.891l73.151 73.15z" fill="url(#paint4_linear)"/><path d="M381.809 276.543l142.732-124.89V73.15L381.809 198.04v78.502z" fill="url(#paint5_linear)"/><path d="M303.306 276.544l142.732-124.891h78.503L381.809 276.544h-78.503z" fill="url(#paint6_linear)"/><path d="M446.038 71.366L303.306 196.257v80.287l142.732-124.891V71.366z" fill="url(#paint7_linear)"/><path d="M223.02 73.15l223.019-1.784-142.733 124.891H78.503L223.02 73.15z" fill="url(#paint8_linear)"/><path d="M303.306 578.066l142.732-124.891H223.019L80.287 578.066h223.019z" fill="url(#paint9_linear)"/><path d="M301.522 504.915l142.733-124.891 1.784 73.151-142.733 124.89-1.784-73.15z" fill="url(#paint10_linear)"/><path d="M520.973 381.809l-76.718-1.785-142.733 124.891 80.287 1.784 139.164-124.89z" fill="url(#paint11_linear)"/><path d="M381.809 585.203l142.732-124.891-3.568-78.503L381.809 506.7v78.503z" fill="url(#paint12_linear)"/><path d="M524.54 460.311L381.808 585.202l-66.014 66.014 140.948-124.891 67.798-66.014z" fill="url(#paint13_linear)"/><path d="M0 581.634l142.732-123.106 67.798 67.797-146.3 123.107L0 581.634z" fill="url(#paint14_linear)"/><path d="M0 198.041L142.732 71.366v387.161L0 581.634V198.041z" fill="url(#paint15_linear)"/><path d="M214.098 3.568l-74.934 64.23-67.798 58.877L0 198.041 214.098 3.568z" fill="url(#paint16_linear)"/><defs><linearGradient id="paint0_linear" x1="78.503" y1="431.338" x2="223.029" y2="430.984" gradientUnits="userSpaceOnUse"><stop stop-color="#8B1700"/><stop offset=".526" stop-color="#561731"/><stop offset="1" stop-color="#1E176A"/></linearGradient><linearGradient id="paint1_linear" x1="64.229" y1="614.923" x2="456.488" y2="604.386" gradientUnits="userSpaceOnUse"><stop stop-color="#8B1700"/><stop offset=".526" stop-color="#561731"/><stop offset="1" stop-color="#1E176A"/></linearGradient><linearGradient id="paint2_linear" x1="0" y1="140.491" x2="217.663" y2="138.446" gradientUnits="userSpaceOnUse"><stop stop-color="#8B1700"/><stop offset=".526" stop-color="#561731"/><stop offset="1" stop-color="#1E176A"/></linearGradient><linearGradient id="paint3_linear" x1="71.366" y1="89.863" x2="452.95" y2="80.033" gradientUnits="userSpaceOnUse"><stop stop-color="#8B1700"/><stop offset=".526" stop-color="#561731"/><stop offset="1" stop-color="#1E176A"/></linearGradient><linearGradient id="paint4_linear" x1="308.659" y1="140.491" x2="524.539" y2="138.479" gradientUnits="userSpaceOnUse"><stop stop-color="#8B1700"/><stop offset=".526" stop-color="#561731"/><stop offset="1" stop-color="#1E176A"/></linearGradient><linearGradient id="paint5_linear" x1="381.809" y1="217.438" x2="524.547" y2="216.581" gradientUnits="userSpaceOnUse"><stop stop-color="#8B1700"/><stop offset=".526" stop-color="#561731"/><stop offset="1" stop-color="#1E176A"/></linearGradient><linearGradient id="paint6_linear" x1="303.306" y1="240.251" x2="524.506" y2="236.902" gradientUnits="userSpaceOnUse"><stop stop-color="#8B1700"/><stop offset=".526" stop-color="#561731"/><stop offset="1" stop-color="#1E176A"/></linearGradient><linearGradient id="paint7_linear" x1="303.306" y1="216.919" x2="446.044" y2="216.071" gradientUnits="userSpaceOnUse"><stop stop-color="#8B1700"/><stop offset=".526" stop-color="#561731"/><stop offset="1" stop-color="#1E176A"/></linearGradient><linearGradient id="paint8_linear" x1="78.503" y1="159.964" x2="445.833" y2="150.724" gradientUnits="userSpaceOnUse"><stop stop-color="#8B1700"/><stop offset=".526" stop-color="#561731"/><stop offset="1" stop-color="#1E176A"/></linearGradient><linearGradient id="paint9_linear" x1="80.287" y1="541.773" x2="445.836" y2="532.623" gradientUnits="userSpaceOnUse"><stop stop-color="#8B1700"/><stop offset=".526" stop-color="#561731"/><stop offset="1" stop-color="#1E176A"/></linearGradient><linearGradient id="paint10_linear" x1="301.522" y1="520.515" x2="446.044" y2="519.614" gradientUnits="userSpaceOnUse"><stop stop-color="#8B1700"/><stop offset=".526" stop-color="#561731"/><stop offset="1" stop-color="#1E176A"/></linearGradient><linearGradient id="paint11_linear" x1="301.522" y1="469.888" x2="520.941" y2="466.639" gradientUnits="userSpaceOnUse"><stop stop-color="#8B1700"/><stop offset=".526" stop-color="#561731"/><stop offset="1" stop-color="#1E176A"/></linearGradient><linearGradient id="paint12_linear" x1="381.809" y1="526.097" x2="524.547" y2="525.241" gradientUnits="userSpaceOnUse"><stop stop-color="#8B1700"/><stop offset=".526" stop-color="#561731"/><stop offset="1" stop-color="#1E176A"/></linearGradient><linearGradient id="paint13_linear" x1="315.794" y1="595.739" x2="524.537" y2="593.788" gradientUnits="userSpaceOnUse"><stop stop-color="#8B1700"/><stop offset=".526" stop-color="#561731"/><stop offset="1" stop-color="#1E176A"/></linearGradient><linearGradient id="paint14_linear" x1="0" y1="593.955" x2="210.527" y2="591.971" gradientUnits="userSpaceOnUse"><stop stop-color="#8B1700"/><stop offset=".526" stop-color="#561731"/><stop offset="1" stop-color="#1E176A"/></linearGradient><linearGradient id="paint15_linear" x1="0" y1="433.351" x2="142.742" y2="433.01" gradientUnits="userSpaceOnUse"><stop stop-color="#8B1700"/><stop offset=".526" stop-color="#561731"/><stop offset="1" stop-color="#1E176A"/></linearGradient><linearGradient id="paint16_linear" x1="0" y1="141.528" x2="214.095" y2="139.513" gradientUnits="userSpaceOnUse"><stop stop-color="#8B1700"/><stop offset=".526" stop-color="#561731"/><stop offset="1" stop-color="#1E176A"/></linearGradient></defs></svg>