<svg width="531" height="654" viewBox="0 0 531 654" fill="none" xmlns="http://www.w3.org/2000/svg">
<path d="M153.909 126.233L298.669 1H377.304L232.544 126.233H153.909Z" stroke="#F0FFF0"/>
<path d="M384.451 278.301L527.424 153.068L377.302 1L232.542 126.233L384.451 278.301Z" stroke="#F0FFF0"/>
<path d="M384.451 650.422L529.211 526.978L527.424 153.068L384.451 278.301V650.422Z" stroke="#F0FFF0"/>
<path d="M305.818 652.211L448.791 526.978H529.213L386.24 652.211H305.818Z" stroke="#F0FFF0"/>
<path d="M305.818 500.143L448.791 376.699V526.978L305.818 652.211V500.143Z" stroke="#F0FFF0"/>
<path d="M82.4224 500.143L227.183 376.699H448.791L305.818 500.143H82.4224Z" stroke="#F0FFF0"/>
<path d="M82.4224 652.211L225.395 526.978L227.183 376.699L82.4224 500.143V652.211Z" stroke="#F0FFF0"/>
<path d="M82.4223 652.211L225.395 526.978H146.76L2 652.211H82.4223Z" stroke="#F0FFF0"/>
<path d="M3.78716 278.301L146.76 153.068V526.978L2 652.211L3.78716 278.301Z" stroke="#F0FFF0"/>
<path d="M82.4224 428.581L227.183 303.348L225.395 188.849L82.4224 312.293V428.581Z" stroke="#F0FFF0"/>
<path d="M305.818 428.581L448.791 303.348V188.849L305.818 314.082V428.581Z" stroke="#F0FFF0"/>
<path d="M82.4224 428.581L227.183 303.348H448.791L305.818 428.581H82.4224Z" stroke="#F0FFF0"/>
<path d="M337.986 86.8735L448.79 188.849L305.817 314.082L193.226 212.106L337.986 86.8735Z" stroke="#F0FFF0"/>
<path d="M82.4224 312.293L225.395 188.849L337.987 86.8735L193.226 212.106L82.4224 312.293Z" stroke="#F0FFF0"/>
<path d="M298.671 1L153.91 126.233L3.78882 280.09L146.762 153.068L298.671 1Z" stroke="#F0FFF0"/>
</svg>
