<svg width="150" height="75" viewBox="0 0 150 75" fill="none" xmlns="http://www.w3.org/2000/svg">
<path d="M28.9914 48.3564C23.0561 45.6193 20.2026 42.654 19.5178 38.7764H30.7035L32.4155 41.6276C33.2145 42.9962 33.6711 44.2507 33.6711 45.7333C33.6711 47.216 32.9862 48.3564 31.2742 48.3564V71.8504H76.245V47.216C74.8753 46.7598 73.6198 45.6193 71.337 41.6276L64.4887 29.8806C63.8038 28.7402 63.5756 27.4856 63.5756 24.8625V0H7.30491V24.5204H16.8926C18.833 24.5204 20.2026 25.8889 20.2026 27.5997C20.2026 29.1963 19.2895 30.679 18.2623 32.0476C11.5281 41.0574 4.56557 45.8474 0 47.216V71.8504H28.9914V48.3564ZM19.4037 37.0657C19.4037 33.9864 19.9744 32.0476 20.8875 30.4509L23.1703 26.2311L30.0186 37.6359H19.4037C19.4037 37.4078 19.4037 37.2938 19.4037 37.0657Z" fill="#F0FFF0"/>
<path d="M115.095 28.398C117.492 28.398 120.003 30.1087 120.46 34.6707H149.794V1.14049H121.944V32.5037H120.802C118.519 5.58836 113.954 0 101.284 0C84.6201 0 78 13.4577 78 37.5219C78 67.1744 95.5774 74.1313 114.753 74.1313C142.945 74.1313 151.049 58.7348 149.794 35.8111H148.652C148.652 41.8557 147.625 43.6805 127.422 43.6805C112.698 43.6805 110.53 40.259 110.53 34.1004C110.53 30.4509 111.899 28.398 115.095 28.398Z" fill="#F0FFF0"/>
</svg>
