<svg width="1376" height="200" viewBox="0 0 1376 200" fill="none" xmlns="http://www.w3.org/2000/svg">
<path d="M63.8303 116.291C50.7627 110.276 44.4802 103.759 42.9724 95.2381H67.5998L71.3694 101.504C73.1285 104.511 74.1337 107.268 74.1337 110.526C74.1337 113.784 72.6259 116.291 68.8563 116.291V167.92H167.869V113.784C164.853 112.782 162.089 110.276 157.063 101.504L141.985 75.6892C140.477 73.183 139.974 70.4261 139.974 64.6617V10.0251H16.0832V63.9098H37.1925C41.4646 63.9098 44.4802 66.9173 44.4802 70.6767C44.4802 74.1855 42.4698 77.4436 40.2081 80.4511C25.3814 100.251 10.052 110.777 0 113.784V167.92H63.8303V116.291ZM42.7211 91.4787C42.7211 84.7118 43.9776 80.4511 45.988 76.9424L51.014 67.6692L66.092 92.7318H42.7211C42.7211 92.2306 42.7211 91.98 42.7211 91.4787Z" fill="#F0FFF0"/>
<path d="M250.666 116.291C245.64 116.291 244.635 111.779 244.635 101.253V91.2281C244.635 83.4586 247.651 80.9524 252.426 80.9524C258.205 80.9524 260.216 83.208 260.216 92.9825V101.253C260.216 111.779 259.211 116.291 254.185 116.291V167.92H329.323V116.291C324.297 116.291 323.292 111.779 323.292 101.253V75.9399C323.292 42.8572 313.492 28.8221 283.587 28.8221C254.436 28.8221 242.122 36.3409 242.373 86.7168H240.112V31.3283H173.015V82.7068C180.302 82.7068 181.559 86.2155 181.559 97.7444V101.253C181.559 111.779 180.302 116.291 173.015 116.291V167.92H250.666V116.291Z" fill="#F0FFF0"/>
<path d="M402.627 118.296C397.852 118.296 395.088 115.539 395.088 101.003C395.088 74.9373 397.098 73.9348 404.386 73.9348C406.647 73.9348 408.909 74.4361 410.668 75.188V103.759C410.668 113.784 408.155 118.296 402.627 118.296ZM473.745 0H397.349V34.5865C408.658 34.5865 410.668 39.0977 410.668 49.6241V69.9248H408.909C405.642 36.0902 392.072 28.8221 371.968 28.8221C344.325 28.8221 332.011 52.8822 332.011 104.762C332.011 150.627 345.833 170.426 373.727 170.426C401.37 170.426 410.417 154.135 412.679 113.784H415.192V167.92H482.289V116.291C475.001 116.291 473.745 112.782 473.745 101.754V0Z" fill="#F0FFF0"/>
<path d="M538.651 200C571.32 200 581.372 191.479 592.681 135.589C597.204 112.531 609.769 94.4862 620.324 82.7068V31.3283H588.408V134.837H585.644L570.315 99.4988C569.058 96.4912 568.556 93.985 568.556 91.7293C568.556 85.9649 572.325 82.7068 583.131 82.4561V31.3283H487.386V82.4561C491.155 82.4561 492.663 85.4637 494.422 91.4787L508.495 137.594H570.566C586.649 137.594 588.408 138.596 588.408 141.353C588.408 143.108 586.901 144.11 583.885 144.11H487.386V200H538.651Z" fill="#F0FFF0"/>
<path d="M754.069 69.9248C759.346 69.9248 764.874 73.6842 765.88 83.7093H830.464V10.0251H769.147V78.9474H766.634C761.608 19.7995 751.556 7.51879 723.661 7.51879C686.971 7.51879 672.396 37.0927 672.396 89.9749C672.396 155.138 711.096 170.426 753.315 170.426C815.386 170.426 833.228 136.591 830.464 86.2155H827.951C827.951 99.4988 825.689 103.509 781.209 103.509C748.791 103.509 744.016 95.99 744.016 82.4561C744.016 74.4361 747.032 69.9248 754.069 69.9248Z" fill="#F0FFF0"/>
<path d="M906.31 79.9499C909.828 79.9499 911.084 82.2055 911.084 86.2155V89.7243C911.084 96.9925 908.571 97.995 878.164 97.995C845.997 97.995 831.171 109.774 831.171 135.338C831.171 157.895 841.223 170.426 870.374 170.426C901.535 170.426 912.592 154.637 913.095 111.278H915.356C915.356 151.128 921.388 170.426 952.046 170.426C981.951 170.426 986.977 156.391 986.977 121.805C986.977 114.787 986.726 106.516 986.223 97.2431H983.459C983.961 116.04 982.454 116.541 979.689 116.541C977.428 116.541 976.674 115.789 976.674 110.025V78.9474C976.674 42.8571 966.119 28.8221 938.476 28.8221C910.833 28.8221 897.514 39.0978 897.263 88.9724H895.252V31.3283H835.945V91.4787H899.273C899.776 84.2105 901.786 79.9499 906.31 79.9499ZM901.786 116.291C897.765 116.291 895.504 114.286 895.504 111.028C895.504 103.008 905.807 101.504 911.084 95.99V106.516C911.084 115.288 907.063 116.291 901.786 116.291Z" fill="#F0FFF0"/>
<path d="M1057.41 1.50376H1055.65C1048.86 22.807 1012.17 36.5915 987.042 36.5915V82.7068H994.329V126.065C994.329 163.158 1010.92 170.426 1034.29 170.426C1060.42 170.426 1072.23 156.14 1072.23 109.524C1072.23 100.752 1072.23 95.2381 1071.98 89.7243H1069.22C1069.72 106.516 1067.46 110.025 1062.93 110.025C1058.91 110.025 1057.41 107.769 1057.41 102.256V82.7068H1072.74V31.3283H1057.41V1.50376Z" fill="#F0FFF0"/>
<path d="M1152.23 87.7193C1156 87.7193 1158.76 89.7243 1160.52 95.2381H1213.04V31.3283H1162.78V90.9775H1160.27C1156.5 39.8496 1143.94 28.8221 1119.06 28.8221C1087.39 28.8221 1077.84 63.1579 1077.84 98.4962C1077.84 157.644 1110.76 170.426 1152.98 170.426C1199.72 170.426 1213.29 142.105 1213.29 99.2481H1210.78C1210.28 108.02 1196.71 109.774 1183.39 109.774C1156.75 109.774 1143.94 106.767 1143.94 95.99C1143.94 90.7268 1146.7 87.7193 1152.23 87.7193Z" fill="#F0FFF0"/>
<path d="M1297.34 116.291C1292.32 116.291 1291.31 111.779 1291.31 101.253V91.2281C1291.31 83.4586 1294.33 80.9524 1299.1 80.9524C1304.88 80.9524 1306.89 83.208 1306.89 92.9825V101.253C1306.89 111.779 1305.89 116.291 1300.86 116.291V167.92H1376V116.291C1370.97 116.291 1369.97 111.779 1369.97 101.253V75.9399C1369.97 42.8572 1360.17 28.8221 1330.26 28.8221C1301.11 28.8221 1288.8 36.3409 1289.05 86.7168H1286.79V0H1219.69V51.3784C1226.98 51.3784 1228.24 54.8872 1228.24 66.416V101.253C1228.24 111.779 1226.98 116.291 1219.69 116.291V167.92H1297.34V116.291Z" fill="#F0FFF0"/>
</svg>
