<svg width="527" height="653" viewBox="0 0 527 653" fill="none" xmlns="http://www.w3.org/2000/svg">
<path d="M81.2873 579.065L224.02 454.174V74.1499L79.5032 197.256L81.2873 579.065Z" stroke="#F0FFF0"/>
<path d="M211.53 527.325L65.2291 650.432L316.795 652.216L457.743 527.325H211.53Z" stroke="#F0FFF0"/>
<path d="M1 199.041L143.732 72.3661L218.667 1L75.9344 125.891L1 199.041Z" stroke="#F0FFF0"/>
<path d="M309.658 125.891L454.175 1H215.098L72.3661 127.675L309.658 125.891Z" stroke="#F0FFF0"/>
<path d="M382.81 199.041L525.542 74.1503L454.176 1L309.659 125.891L382.81 199.041Z" stroke="#F0FFF0"/>
<path d="M382.809 277.543L525.541 152.653V74.1499L382.809 199.041V277.543Z" stroke="#F0FFF0"/>
<path d="M304.306 277.544L447.038 152.653H525.541L382.809 277.544H304.306Z" stroke="#F0FFF0"/>
<path d="M447.038 72.3662L304.306 197.257V277.544L447.038 152.653V72.3662Z" stroke="#F0FFF0"/>
<path d="M224.02 74.1504L447.039 72.3662L304.306 197.257H79.5032L224.02 74.1504Z" stroke="#F0FFF0"/>
<path d="M304.306 579.066L447.038 454.175H224.019L81.2869 579.066H304.306Z" stroke="#F0FFF0"/>
<path d="M302.522 505.915L445.254 381.024L447.039 454.175L304.306 579.065L302.522 505.915Z" stroke="#F0FFF0"/>
<path d="M521.973 382.809L445.254 381.024L302.522 505.915L382.809 507.699L521.973 382.809Z" stroke="#F0FFF0"/>
<path d="M382.809 586.203L525.541 461.312L521.973 382.809L382.809 507.7V586.203Z" stroke="#F0FFF0"/>
<path d="M525.54 461.312L382.808 586.202L316.794 652.216L457.742 527.325L525.54 461.312Z" stroke="#F0FFF0"/>
<path d="M1 582.634L143.732 459.527L211.53 527.325L65.2295 650.432L1 582.634Z" stroke="#F0FFF0"/>
<path d="M1 199.041L143.732 72.3662V459.527L1 582.634V199.041Z" stroke="#F0FFF0"/>
<path d="M215.098 4.56836L140.164 68.7979L72.3661 127.675L1 199.041L215.098 4.56836Z" stroke="#F0FFF0"/>
</svg>
